<svg xmlns="http://www.w3.org/2000/svg" width="480" height="480"><path d="M240 48C133.969 48 48 133.969 48 240c0 89.969 61.953 165.246 145.473 186.078-.899-2.59-1.473-5.598-1.473-9.324v-32.817h-24.129c-13.137 0-24.816-5.648-30.48-16.144-6.286-11.664-7.375-29.504-22.957-40.418-4.625-3.633-1.106-7.773 4.222-7.215 9.84 2.785 18 9.535 25.68 19.55 7.648 10.032 11.25 12.306 25.535 12.306 6.93 0 17.297-.399 27.059-1.938 5.246-13.324 14.316-25.598 25.406-31.39-63.938-6.575-94.45-38.383-94.45-81.567 0-18.594 7.923-36.578 21.38-51.73-4.418-15.04-9.97-45.711 1.695-57.391 28.766 0 46.16 18.656 50.336 23.695 14.336-4.91 30.078-7.695 46.625-7.695 16.574 0 32.383 2.785 46.75 7.727C298.8 146.719 316.207 128 345.039 128c11.715 11.695 6.098 42.496 1.633 57.504 13.375 15.121 21.25 33.055 21.25 51.617 0 43.152-30.465 74.941-94.305 81.55C291.184 327.84 304 353.602 304 373.009v43.746c0 1.664-.367 2.863-.559 4.285C378.258 394.816 432 323.777 432 240c0-106.031-85.969-192-192-192zm0 0" fill="#3e3e3e" id="surface53743861"/></svg>