<svg xmlns="http://www.w3.org/2000/svg" width="24" height="24"><path d="M10.898 2.102c-4.597.5-8.296 4.199-8.796 8.699-.5 4.699 2.199 8.898 6.296 10.5.301.097.602-.102.602-.5v-1.602s-.398.102-.898.102c-1.403 0-2-1.2-2.102-1.903-.102-.398-.3-.699-.602-1C5.102 16.301 5 16.301 5 16.2c0-.2.3-.2.398-.2C6 16 6.5 16.7 6.7 17c.5.8 1.102 1 1.403 1 .398 0 .699-.102.898-.2.102-.698.398-1.402 1-1.8-2.3-.5-4-1.8-4-4 0-1.102.5-2.2 1.2-3-.098-.2-.2-.7-.2-1.398 0-.403 0-1 .3-1.602 0 0 1.4 0 2.802 1.3.5-.198 1.199-.3 1.898-.3.7 0 1.398.102 2 .3C15.3 6 16.8 6 16.8 6c.2.602.2 1.2.2 1.602 0 .796-.102 1.199-.2 1.398.7.8 1.2 1.8 1.2 3 0 2.2-1.7 3.5-4 4 .602.5 1 1.398 1 2.3v2.598c0 .301.3.602.7.5 3.698-1.5 6.3-5.097 6.3-9.296 0-6-5.102-10.704-11.102-10zm0 0" fill="#f2f2f2" id="surface4435970"/></svg>