<svg width="1063" height="1064" fill="none" xmlns="http://www.w3.org/2000/svg"><path fill-rule="evenodd" clip-rule="evenodd" d="M799.12 1002.78c11.24 11.22 11.297 29.47.126 40.76-11.17 11.29-29.338 11.35-40.578.13L571.273 856.591 312.812 598.568 152.276 438.305c-78.681-78.548-79.076-206.291-.882-285.323 78.194-79.032 205.365-79.425 284.046-.878L854.437 570.39l-.001.001 27.224 27.177c11.24 11.221 11.296 29.47.126 40.76-11.171 11.291-29.338 11.347-40.578.126l-27.224-27.178v.001l-.332-.332c-11.24-11.221-29.408-11.165-40.578.125-11.159 11.278-11.114 29.5.089 40.724L895.877 774.3c11.24 11.221 11.296 29.47.126 40.76-11.171 11.291-29.338 11.347-40.578.126L731.652 691.623c-11.249-11.099-29.326-11.003-40.456.246-11.17 11.291-11.114 29.54.126 40.761l1.306 1.304v.001l41.084 41.014c11.24 11.221 11.296 29.47.126 40.76-11.171 11.291-29.338 11.347-40.578.126L592.214 714.96c-11.247-11.131-29.347-11.045-40.488.215-11.115 11.235-11.114 29.359-.04 40.594L799.12 1002.78z" fill="#002E4D"/><mask id="a" maskUnits="userSpaceOnUse" x="-34.873" y="-34.395" width="851.737" height="853.796" fill="#000"><path fill="#fff" d="M-34.873-34.395h851.737v853.796H-34.873z"/><path fill-rule="evenodd" clip-rule="evenodd" d="M694.444 588.193c9.83 9.814 9.88 25.773.11 35.648-9.769 9.874-25.657 9.923-35.487.109L493.232 458.396c-9.836-9.739-25.669-9.665-35.414.184-9.769 9.874-9.72 25.834.11 35.647l1.143 1.141h-.001l9.804 9.787c9.83 9.814 9.879 25.774.11 35.648-9.769 9.874-25.658 9.923-35.488.109l-62.213-62.108c-9.834-9.764-25.686-9.699-35.439.159-9.729 9.833-9.721 25.701-.012 35.525l106.375 106.195c9.83 9.813 9.88 25.773.111 35.647-9.77 9.874-25.658 9.923-35.488.11L126.899 376.983l-2.306-2.302c-68.81-68.694-69.156-180.413-.771-249.531 68.385-69.119 179.604-69.462 248.415-.768l228.344 227.957v.001l17.891 17.86c9.83 9.814 9.879 25.774.11 35.648-9.769 9.874-25.657 9.923-35.488.11l-17.891-17.861-66.593-66.481c-9.83-9.813-25.719-9.764-35.488.11-9.738 9.843-9.72 25.733.018 35.554l231.304 230.913z"/></mask><path fill-rule="evenodd" clip-rule="evenodd" d="M694.444 588.193c9.83 9.814 9.88 25.773.11 35.648-9.769 9.874-25.657 9.923-35.487.109L493.232 458.396c-9.836-9.739-25.669-9.665-35.414.184-9.769 9.874-9.72 25.834.11 35.647l1.143 1.141h-.001l9.804 9.787c9.83 9.814 9.879 25.774.11 35.648-9.769 9.874-25.658 9.923-35.488.109l-62.213-62.108c-9.834-9.764-25.686-9.699-35.439.159-9.729 9.833-9.721 25.701-.012 35.525l106.375 106.195c9.83 9.813 9.88 25.773.111 35.647-9.77 9.874-25.658 9.923-35.488.11L126.899 376.983l-2.306-2.302c-68.81-68.694-69.156-180.413-.771-249.531 68.385-69.119 179.604-69.462 248.415-.768l228.344 227.957v.001l17.891 17.86c9.83 9.814 9.879 25.774.11 35.648-9.769 9.874-25.657 9.923-35.488.11l-17.891-17.861-66.593-66.481c-9.83-9.813-25.719-9.764-35.488.11-9.738 9.843-9.72 25.733.018 35.554l231.304 230.913z" fill="#153956"/><path d="M493.232 458.396l16.88-17.06-.035-.035-.035-.034-16.81 17.129zm-34.161 36.972l16.985 16.956 16.879-17.061-16.985-16.956-16.879 17.061zm-.001 0l-16.985-16.956-16.88 17.061 16.985 16.956 16.88-17.061zm9.804 9.787l-16.88 17.061 16.88-17.061zm-97.591-26.351l16.88-17.06-.023-.023-.023-.023-16.834 17.106zm-35.451 35.684l-16.994 16.946.057.057.057.057 16.88-17.06zM406.83 656.44l-16.88 17.06 16.88-17.06zM126.899 376.983l-16.881 17.06.001.001 16.88-17.061zm-2.306-2.302l16.881-17.06-.001-.001-16.88 17.061zm475.988-22.342l16.985 16.957 16.88-17.061-16.985-16.956-16.88 17.06zm0 .001l-16.985-16.956-16.88 17.06 16.985 16.957 16.88-17.061zm-17.487 53.618l16.88-17.061-16.88 17.061zm-17.891-17.861l-16.88 17.061h.001l16.879-17.061zm-66.593-66.481l16.88-17.06-16.88 17.06zm-35.47 35.664l-16.967 16.974.043.044.044.043 16.88-17.061zm248.399 283.517c19.092-19.297 18.996-50.487-.215-69.665l-33.76 34.122c.45.449.452 1.179.006 1.63l33.969 33.913zm-69.352.214c19.21 19.178 50.261 19.082 69.352-.214l-33.969-33.913a1.145 1.145 0 0 1-1.624.005l-33.759 34.122zM476.352 475.457l165.835 165.554 33.759-34.122-165.834-165.553-33.76 34.121zm33.69-34.19c-19.223-19.035-50.165-18.891-69.209.357l33.97 33.912a1.144 1.144 0 0 1 1.618-.01l33.621-34.259zm-69.209.357c-19.091 19.296-18.995 50.486.216 69.664l33.759-34.121a1.158 1.158 0 0 1-.005-1.631l-33.97-33.912zm.216 69.664l1.142 1.14 33.759-34.121-1.142-1.14-33.759 34.121zm1.037-32.877l-.001.001 33.97 33.912h.001l-33.97-33.913zm.104 34.018l9.804 9.787 33.76-34.122-9.804-9.787-33.76 34.122zm9.804 9.787c.45.449.452 1.179.005 1.63l33.97 33.913c19.092-19.297 18.995-50.487-.215-69.665l-33.76 34.122zm.005 1.63a1.143 1.143 0 0 1-1.623.005l-33.76 34.122c19.211 19.178 50.261 19.082 69.353-.214l-33.97-33.913zm-1.623.005l-62.213-62.107-33.76 34.121 62.213 62.108 33.76-34.122zm-62.259-62.153c-19.219-19.084-50.198-18.957-69.258.308l33.97 33.913a1.143 1.143 0 0 1 1.619-.009l33.669-34.212zm-69.258.308c-19.014 19.217-18.996 50.228-.021 69.428l33.988-33.893a1.155 1.155 0 0 1 .003-1.622l-33.97-33.913zm140.228 141.616L352.712 497.427l-33.76 34.121 106.376 106.195 33.759-34.121zm.215 69.664c19.092-19.296 18.996-50.486-.215-69.664l-33.759 34.121c.449.449.451 1.179.005 1.631l33.969 33.912zm-69.352.214c19.211 19.178 50.261 19.082 69.352-.214l-33.969-33.912a1.144 1.144 0 0 1-1.623.005L389.95 673.5zM110.019 394.044L389.95 673.5l33.76-34.121-279.932-279.457-33.759 34.122zm33.76-34.121l-2.305-2.302-33.762 34.12 2.306 2.302 33.761-34.12zm-2.306-2.303c-59.43-59.329-59.729-155.818-.666-215.514l-33.97-33.912c-77.707 78.54-77.315 205.489.876 283.548l33.76-34.122zm-.666-215.514c59.062-59.696 155.12-59.993 214.55-.663l33.76-34.122c-78.192-78.059-204.573-77.668-282.28.873l33.97 33.912zm214.55-.663L583.702 369.4l33.759-34.121-228.344-227.958-33.76 34.122zm228.239 193.94v.001l33.97 33.912-33.97-33.913zm51.756 17.757l-17.891-17.861-33.76 34.122 17.891 17.86 33.76-34.121zm.215 69.664c19.092-19.296 18.996-50.486-.215-69.664l-33.76 34.121c.45.449.452 1.179.005 1.631l33.97 33.912zm-69.352.214c19.21 19.178 50.26 19.082 69.352-.214l-33.97-33.912a1.144 1.144 0 0 1-1.623.005l-33.759 34.121zm-17.891-17.86l17.891 17.86 33.759-34.121-17.891-17.861-33.759 34.122zm33.759-34.122l-66.593-66.48-33.76 34.121 66.593 66.481 33.76-34.122zm-66.593-66.48c-19.211-19.178-50.261-19.082-69.353.214l33.97 33.912a1.144 1.144 0 0 1 1.623-.005l33.76-34.121zm-69.353.214c-19.032 19.236-18.996 50.29.036 69.484l33.933-33.947a1.158 1.158 0 0 1 .001-1.625l-33.97-33.912zm265.187 266.362L480.019 340.22l-33.759 34.121 231.304 230.913 33.76-34.122z" fill="#002E4D" mask="url(#a)"/></svg>