<svg xmlns="http://www.w3.org/2000/svg"><symbol id="github01" viewBox="0 0 15 15"><path d="M9.358 2.145a8.209 8.209 0 00-3.716 0c-.706-.433-1.245-.632-1.637-.716a2.17 2.17 0 00-.51-.053 1.258 1.258 0 00-.232.028l-.01.002-.004.002h-.003l.137.481-.137-.48a.5.5 0 00-.32.276 3.12 3.12 0 00-.159 2.101A3.354 3.354 0 002 5.93c0 1.553.458 2.597 1.239 3.268.547.47 1.211.72 1.877.863a2.34 2.34 0 00-.116.958v.598c-.407.085-.689.058-.89-.008-.251-.083-.444-.25-.629-.49a4.798 4.798 0 01-.27-.402l-.057-.093a9.216 9.216 0 00-.224-.354c-.19-.281-.472-.633-.928-.753l-.484-.127-.254.968.484.127c.08.02.184.095.355.346a7.2 7.2 0 01.19.302l.068.11c.094.152.202.32.327.484.253.33.598.663 1.11.832.35.116.748.144 1.202.074V14.5a.5.5 0 00.5.5h4a.5.5 0 00.5-.5v-3.563c0-.315-.014-.604-.103-.873.663-.14 1.322-.39 1.866-.86.78-.676 1.237-1.73 1.237-3.292v-.001a3.354 3.354 0 00-.768-2.125 3.12 3.12 0 00-.159-2.1.5.5 0 00-.319-.277l-.137.48c.137-.48.136-.48.135-.48l-.002-.001-.004-.002-.009-.002a.671.671 0 00-.075-.015 1.261 1.261 0 00-.158-.013 2.172 2.172 0 00-.51.053c-.391.084-.93.283-1.636.716z"/></symbol><symbol id="link01" viewBox="0 0 24 24"><path d="M4.98 3.5C4.98 4.881 3.87 6 2.5 6S.02 4.881.02 3.5C.02 2.12 1.13 1 2.5 1s2.48 1.12 2.48 2.5zM5 8H0v16h5V8zm7.982 0H8.014v16h4.969v-8.399c0-4.67 6.029-5.052 6.029 0V24H24V13.869c0-7.88-8.922-7.593-11.018-3.714V8z"/></symbol><symbol id="fb01" viewBox="0 0 24 24"><path d="M9 8H6v4h3v12h5V12h3.642L18 8h-4V6.333C14 5.378 14.192 5 15.115 5H18V0h-3.808C10.596 0 9 1.583 9 4.615V8z"/></symbol><symbol id="insta01" viewBox="0 0 30 30"><path d="M9.998 3C6.139 3 3 6.142 3 10.002v10C3 23.861 6.142 27 10.002 27h10C23.861 27 27 23.858 27 19.998v-10C27 6.139 23.858 3 19.998 3h-10zM22 7a1 1 0 110 2 1 1 0 010-2zm-7 2c3.309 0 6 2.691 6 6s-2.691 6-6 6-6-2.691-6-6 2.691-6 6-6zm0 2a4 4 0 00-4 4 4 4 0 004 4 4 4 0 004-4 4 4 0 00-4-4z"/></symbol></svg>